<svg width="600" height="100" viewBox="0 0 600 100" fill="none" xmlns="http://www.w3.org/2000/svg">
<path d="M49.5,100 L36,100 L36,75 L18,75 L18,100 L4.5,100 L4.5,12.5 L49.5,12.5 L49.5,100 Z M36,25 L18,25 L18,62.5 L36,62.5 L36,25 Z" fill="black"/>
<path d="M82.5,100 L69,100 L69,12.5 L82.5,12.5 L82.5,100 Z M100.5,12.5 L100.5,100 L87,100 L87,12.5 L100.5,12.5 Z M69,56.25 L100.5,56.25 L100.5,68.75 L69,68.75 L69,56.25 Z" fill="black"/>
<path d="M124.5,100 L111,100 L111,12.5 L124.5,12.5 L147,75 L147,12.5 L160.5,12.5 L160.5,100 L147,100 L124.5,37.5 L124.5,100 Z" fill="black"/>
<path d="M184.5,100 L171,100 L171,12.5 L184.5,12.5 L184.5,100 Z M202.5,12.5 L202.5,100 L189,100 L189,12.5 L202.5,12.5 Z M171,56.25 L202.5,56.25 L202.5,68.75 L171,68.75 L171,56.25 Z" fill="black"/>
<path d="M229.5,100 L216,100 L216,12.5 L229.5,12.5 L229.5,100 Z M247.5,12.5 L247.5,100 L234,100 L234,12.5 L247.5,12.5 Z M216,56.25 L247.5,56.25 L247.5,68.75 L216,68.75 L216,56.25 Z" fill="black"/>
<path d="M265.5,100 L265.5,12.5 L306,12.5 L306,100 L292.5,100 L292.5,68.75 L279,68.75 L279,100 L265.5,100 Z M279,25 L279,56.25 L292.5,56.25 L292.5,25 L279,25 Z" fill="black"/>
<path d="M337.5,100 L319.5,12.5 L333,12.5 L344.25,68.75 L355.5,12.5 L369,12.5 L351,100 L337.5,100 Z" fill="black"/>
<path d="M391.5,100 L378,100 L378,12.5 L391.5,12.5 L391.5,100 Z M409.5,12.5 L409.5,100 L396,100 L396,12.5 L409.5,12.5 Z M378,56.25 L409.5,56.25 L409.5,68.75 L378,68.75 L378,56.25 Z" fill="black"/>
<path d="M445.5,100 L432,100 L432,12.5 L445.5,12.5 L468,75 L468,12.5 L481.5,12.5 L481.5,100 L468,100 L445.5,37.5 L445.5,100 Z" fill="black"/>
<path d="M504,100 L504,12.5 L517.5,12.5 L517.5,87.5 L544.5,87.5 L544.5,100 L504,100 Z" fill="black"/>
<path d="M567,100 L567,25 L553.5,25 L553.5,12.5 L594,12.5 L594,25 L580.5,25 L580.5,100 L567,100 Z" fill="black"/>
</svg>