<svg xmlns="http://www.w3.org/2000/svg" xmlns:xlink="http://www.w3.org/1999/xlink" width="2261" zoomAndPan="magnify" viewBox="0 0 1695.75 266.999984" height="356" preserveAspectRatio="xMidYMid meet" version="1.0"><defs><g/><clipPath id="c6e96ca0ec"><path d="M 39 0.0195312 L 1658 0.0195312 L 1658 266.980469 L 39 266.980469 Z M 39 0.0195312 " clip-rule="nonzero"/></clipPath><clipPath id="abdf00f3f6"><rect x="0" width="1619" y="0" height="267"/></clipPath><clipPath id="1877827f1a"><path d="M 16 1 L 18.976562 1 L 18.976562 6 L 16 6 Z M 16 1 " clip-rule="nonzero"/></clipPath><clipPath id="04779be6d7"><rect x="0" width="19" y="0" height="7"/></clipPath><clipPath id="414534838d"><path d="M 659.132812 239.128906 L 666.632812 239.128906 L 666.632812 245.128906 L 659.132812 245.128906 Z M 659.132812 239.128906 " clip-rule="nonzero"/></clipPath><clipPath id="ab28d610df"><rect x="0" width="16" y="0" height="7"/></clipPath><clipPath id="89023a9e9f"><path d="M 988.0625 239.128906 L 993.3125 239.128906 L 993.3125 245.128906 L 988.0625 245.128906 Z M 988.0625 239.128906 " clip-rule="nonzero"/></clipPath><clipPath id="8f1e09375a"><path d="M 0.34375 1 L 6 1 L 6 7 L 0.34375 7 Z M 0.34375 1 " clip-rule="nonzero"/></clipPath><clipPath id="08ed96f0fd"><rect x="0" width="60" y="0" height="8"/></clipPath></defs><g clip-path="url(#c6e96ca0ec)"><g transform="matrix(1, 0, 0, 1, 39, 0.000000000000055005)"><g clip-path="url(#abdf00f3f6)"><g fill="#000000" fill-opacity="1"><g transform="translate(0.739407, 208.534378)"><g><path d="M 132.21875 1.328125 C 124.394531 1.328125 117.9375 -0.585938 112.84375 -4.421875 C 107.75 -8.265625 103.757812 -12.988281 100.875 -18.59375 C 98 -24.207031 95.085938 -31.375 92.140625 -40.09375 C 89.773438 -47.320312 87.519531 -53.148438 85.375 -57.578125 C 83.238281 -62.015625 80.472656 -65.707031 77.078125 -68.65625 C 73.679688 -71.613281 69.546875 -73.09375 64.671875 -73.09375 L 46.515625 -73.09375 L 46.515625 -23.25 C 46.515625 -19.113281 47.175781 -15.050781 48.5 -11.0625 C 49.832031 -7.082031 51.457031 -3.765625 53.375 -1.109375 L 53.375 0 L 18.609375 0 L 18.609375 -1.109375 C 20.523438 -3.765625 22.144531 -7.082031 23.46875 -11.0625 C 24.800781 -15.050781 25.46875 -19.113281 25.46875 -23.25 L 25.46875 -131.78125 C 25.46875 -135.914062 24.800781 -139.972656 23.46875 -143.953125 C 22.144531 -147.941406 20.523438 -151.269531 18.609375 -153.9375 L 18.609375 -155.046875 L 73.09375 -155.046875 C 82.976562 -155.046875 92.09375 -153.566406 100.4375 -150.609375 C 108.78125 -147.660156 115.460938 -143.117188 120.484375 -136.984375 C 125.503906 -130.859375 128.015625 -123.21875 128.015625 -114.0625 C 128.015625 -105.789062 125.800781 -98.738281 121.375 -92.90625 C 116.945312 -87.082031 111.335938 -82.65625 104.546875 -79.625 C 97.753906 -76.59375 90.8125 -74.859375 83.71875 -74.421875 L 83.71875 -73.96875 C 89.625 -73.820312 94.71875 -71.90625 99 -68.21875 C 103.28125 -64.53125 106.785156 -60.0625 109.515625 -54.8125 C 112.253906 -49.570312 115.097656 -43.039062 118.046875 -35.21875 C 121.890625 -25.320312 125.472656 -17.828125 128.796875 -12.734375 C 132.117188 -7.640625 136.363281 -5.09375 141.53125 -5.09375 C 144.476562 -5.09375 146.988281 -6.125 149.0625 -8.1875 L 150.390625 -7.09375 C 148.617188 -4.28125 146.144531 -2.171875 142.96875 -0.765625 C 139.789062 0.628906 136.207031 1.328125 132.21875 1.328125 Z M 70.203125 -77.734375 C 80.835938 -77.734375 89.441406 -80.90625 96.015625 -87.25 C 102.585938 -93.601562 105.875 -102.539062 105.875 -114.0625 C 105.875 -125.582031 102.476562 -134.515625 95.6875 -140.859375 C 88.894531 -147.210938 79.8125 -150.390625 68.4375 -150.390625 C 65.039062 -150.390625 61.3125 -150.09375 57.25 -149.5 C 53.1875 -148.90625 49.609375 -148.09375 46.515625 -147.0625 L 46.515625 -77.734375 Z M 70.203125 -77.734375 "/></g></g></g><g fill="#000000" fill-opacity="1"><g transform="translate(142.692685, 208.534378)"><g><path d="M 18.609375 -1.109375 C 20.523438 -3.765625 22.144531 -7.082031 23.46875 -11.0625 C 24.800781 -15.050781 25.46875 -19.113281 25.46875 -23.25 L 25.46875 -131.78125 C 25.46875 -135.914062 24.800781 -139.972656 23.46875 -143.953125 C 22.144531 -147.941406 20.523438 -151.269531 18.609375 -153.9375 L 18.609375 -155.046875 L 118.5 -155.046875 L 123.140625 -118.5 L 120.9375 -118.5 C 117.832031 -125.582031 114.582031 -131.375 111.1875 -135.875 C 107.789062 -140.382812 103.359375 -143.929688 97.890625 -146.515625 C 92.429688 -149.097656 85.640625 -150.390625 77.515625 -150.390625 L 46.515625 -150.390625 L 46.515625 -80.84375 L 75.96875 -80.84375 C 89.113281 -80.84375 97.234375 -87.265625 100.328125 -100.109375 L 102.546875 -100.109375 L 102.546875 -56.921875 L 100.328125 -56.921875 C 97.078125 -69.765625 88.957031 -76.1875 75.96875 -76.1875 L 46.515625 -76.1875 L 46.515625 -4.65625 L 82.828125 -4.65625 C 90.953125 -4.65625 97.742188 -5.945312 103.203125 -8.53125 C 108.671875 -11.113281 113.101562 -14.65625 116.5 -19.15625 C 119.894531 -23.65625 123.144531 -29.453125 126.25 -36.546875 L 128.46875 -36.546875 L 123.8125 0 L 18.609375 0 Z M 18.609375 -1.109375 "/></g></g></g><g fill="#000000" fill-opacity="1"><g transform="translate(271.358454, 208.534378)"><g><path d="M 15.953125 -1.109375 C 19.191406 -5.097656 21.625 -8.789062 23.25 -12.1875 C 24.875 -15.582031 25.6875 -19.269531 25.6875 -23.25 L 25.6875 -131.78125 C 25.6875 -135.769531 24.875 -139.460938 23.25 -142.859375 C 21.625 -146.253906 19.191406 -149.945312 15.953125 -153.9375 L 15.953125 -155.046875 L 44.078125 -155.046875 L 129.34375 -32.78125 L 129.34375 -131.78125 C 129.34375 -135.769531 128.53125 -139.460938 126.90625 -142.859375 C 125.28125 -146.253906 122.847656 -149.945312 119.609375 -153.9375 L 119.609375 -155.046875 L 144.84375 -155.046875 L 144.84375 -153.9375 C 141.601562 -149.945312 139.171875 -146.253906 137.546875 -142.859375 C 135.921875 -139.460938 135.109375 -135.769531 135.109375 -131.78125 L 135.109375 0 L 127.578125 0 L 31.453125 -137.09375 L 31.453125 -23.25 C 31.453125 -19.269531 32.265625 -15.582031 33.890625 -12.1875 C 35.515625 -8.789062 37.953125 -5.097656 41.203125 -1.109375 L 41.203125 0 L 15.953125 0 Z M 15.953125 -1.109375 "/></g></g></g><g fill="#000000" fill-opacity="1"><g transform="translate(422.170087, 208.534378)"><g><path d="M 18.609375 -1.109375 C 20.523438 -3.765625 22.144531 -7.082031 23.46875 -11.0625 C 24.800781 -15.050781 25.46875 -19.113281 25.46875 -23.25 L 25.46875 -131.78125 C 25.46875 -135.914062 24.800781 -139.972656 23.46875 -143.953125 C 22.144531 -147.941406 20.523438 -151.269531 18.609375 -153.9375 L 18.609375 -155.046875 L 74.859375 -155.046875 C 89.328125 -155.046875 102.539062 -152.457031 114.5 -147.28125 C 126.46875 -142.113281 136.101562 -133.769531 143.40625 -122.25 C 150.71875 -110.738281 154.375 -95.828125 154.375 -77.515625 C 154.375 -59.210938 150.71875 -44.300781 143.40625 -32.78125 C 136.101562 -21.257812 126.46875 -12.914062 114.5 -7.75 C 102.539062 -2.582031 89.328125 0 74.859375 0 L 18.609375 0 Z M 69.765625 -4.875 C 88.078125 -4.875 102.878906 -10.707031 114.171875 -22.375 C 125.472656 -34.039062 131.125 -52.421875 131.125 -77.515625 C 131.125 -102.472656 125.472656 -120.820312 114.171875 -132.5625 C 102.878906 -144.300781 88.078125 -150.171875 69.765625 -150.171875 C 62.679688 -150.171875 54.929688 -149.0625 46.515625 -146.84375 L 46.515625 -8.1875 C 54.929688 -5.976562 62.679688 -4.875 69.765625 -4.875 Z M 69.765625 -4.875 "/></g></g></g><g fill="#000000" fill-opacity="1"><g transform="translate(578.075184, 208.534378)"><g><path d="M 18.609375 -1.109375 C 20.523438 -3.765625 22.144531 -7.082031 23.46875 -11.0625 C 24.800781 -15.050781 25.46875 -19.113281 25.46875 -23.25 L 25.46875 -131.78125 C 25.46875 -135.914062 24.800781 -139.972656 23.46875 -143.953125 C 22.144531 -147.941406 20.523438 -151.269531 18.609375 -153.9375 L 18.609375 -155.046875 L 118.5 -155.046875 L 123.140625 -118.5 L 120.9375 -118.5 C 117.832031 -125.582031 114.582031 -131.375 111.1875 -135.875 C 107.789062 -140.382812 103.359375 -143.929688 97.890625 -146.515625 C 92.429688 -149.097656 85.640625 -150.390625 77.515625 -150.390625 L 46.515625 -150.390625 L 46.515625 -80.84375 L 75.96875 -80.84375 C 89.113281 -80.84375 97.234375 -87.265625 100.328125 -100.109375 L 102.546875 -100.109375 L 102.546875 -56.921875 L 100.328125 -56.921875 C 97.078125 -69.765625 88.957031 -76.1875 75.96875 -76.1875 L 46.515625 -76.1875 L 46.515625 -4.65625 L 82.828125 -4.65625 C 90.953125 -4.65625 97.742188 -5.945312 103.203125 -8.53125 C 108.671875 -11.113281 113.101562 -14.65625 116.5 -19.15625 C 119.894531 -23.65625 123.144531 -29.453125 126.25 -36.546875 L 128.46875 -36.546875 L 123.8125 0 L 18.609375 0 Z M 18.609375 -1.109375 "/></g></g></g><g fill="#000000" fill-opacity="1"><g transform="translate(706.741002, 208.534378)"><g><path d="M 132.21875 1.328125 C 124.394531 1.328125 117.9375 -0.585938 112.84375 -4.421875 C 107.75 -8.265625 103.757812 -12.988281 100.875 -18.59375 C 98 -24.207031 95.085938 -31.375 92.140625 -40.09375 C 89.773438 -47.320312 87.519531 -53.148438 85.375 -57.578125 C 83.238281 -62.015625 80.472656 -65.707031 77.078125 -68.65625 C 73.679688 -71.613281 69.546875 -73.09375 64.671875 -73.09375 L 46.515625 -73.09375 L 46.515625 -23.25 C 46.515625 -19.113281 47.175781 -15.050781 48.5 -11.0625 C 49.832031 -7.082031 51.457031 -3.765625 53.375 -1.109375 L 53.375 0 L 18.609375 0 L 18.609375 -1.109375 C 20.523438 -3.765625 22.144531 -7.082031 23.46875 -11.0625 C 24.800781 -15.050781 25.46875 -19.113281 25.46875 -23.25 L 25.46875 -131.78125 C 25.46875 -135.914062 24.800781 -139.972656 23.46875 -143.953125 C 22.144531 -147.941406 20.523438 -151.269531 18.609375 -153.9375 L 18.609375 -155.046875 L 73.09375 -155.046875 C 82.976562 -155.046875 92.09375 -153.566406 100.4375 -150.609375 C 108.78125 -147.660156 115.460938 -143.117188 120.484375 -136.984375 C 125.503906 -130.859375 128.015625 -123.21875 128.015625 -114.0625 C 128.015625 -105.789062 125.800781 -98.738281 121.375 -92.90625 C 116.945312 -87.082031 111.335938 -82.65625 104.546875 -79.625 C 97.753906 -76.59375 90.8125 -74.859375 83.71875 -74.421875 L 83.71875 -73.96875 C 89.625 -73.820312 94.71875 -71.90625 99 -68.21875 C 103.28125 -64.53125 106.785156 -60.0625 109.515625 -54.8125 C 112.253906 -49.570312 115.097656 -43.039062 118.046875 -35.21875 C 121.890625 -25.320312 125.472656 -17.828125 128.796875 -12.734375 C 132.117188 -7.640625 136.363281 -5.09375 141.53125 -5.09375 C 144.476562 -5.09375 146.988281 -6.125 149.0625 -8.1875 L 150.390625 -7.09375 C 148.617188 -4.28125 146.144531 -2.171875 142.96875 -0.765625 C 139.789062 0.628906 136.207031 1.328125 132.21875 1.328125 Z M 70.203125 -77.734375 C 80.835938 -77.734375 89.441406 -80.90625 96.015625 -87.25 C 102.585938 -93.601562 105.875 -102.539062 105.875 -114.0625 C 105.875 -125.582031 102.476562 -134.515625 95.6875 -140.859375 C 88.894531 -147.210938 79.8125 -150.390625 68.4375 -150.390625 C 65.039062 -150.390625 61.3125 -150.09375 57.25 -149.5 C 53.1875 -148.90625 49.609375 -148.09375 46.515625 -147.0625 L 46.515625 -77.734375 Z M 70.203125 -77.734375 "/></g></g></g><g fill="#000000" fill-opacity="1"><g transform="translate(848.699613, 208.534378)"><g/></g></g><g fill="#000000" fill-opacity="1"><g transform="translate(895.204303, 208.534378)"><g/></g></g><g fill="#000000" fill-opacity="1"><g transform="translate(941.728009, 208.534378)"><g><path d="M 15.953125 -131.78125 C 14.023438 -136.800781 12.066406 -140.972656 10.078125 -144.296875 C 8.085938 -147.617188 5.613281 -150.832031 2.65625 -153.9375 L 2.65625 -155.046875 L 42.078125 -155.046875 L 42.078125 -153.9375 C 38.679688 -150.238281 36.984375 -145.734375 36.984375 -140.421875 C 36.984375 -137.460938 37.648438 -134.210938 38.984375 -130.671875 L 78.84375 -25.25 L 118.9375 -130.015625 C 120.5625 -134.441406 121.375 -138.128906 121.375 -141.078125 C 121.375 -146.398438 119.160156 -150.6875 114.734375 -153.9375 L 114.734375 -155.046875 L 142.1875 -155.046875 L 142.1875 -153.9375 C 138.207031 -151.269531 134.882812 -148.164062 132.21875 -144.625 C 129.5625 -141.082031 127.273438 -136.726562 125.359375 -131.5625 L 74.421875 0.890625 L 66.890625 0.890625 Z M 15.953125 -131.78125 "/></g></g></g><g fill="#000000" fill-opacity="1"><g transform="translate(1075.487315, 208.534378)"><g><path d="M 0.4375 -1.109375 C 4.28125 -3.765625 7.53125 -6.863281 10.1875 -10.40625 C 12.84375 -13.945312 15.128906 -18.226562 17.046875 -23.25 L 69.328125 -155.921875 L 76.859375 -155.921875 L 129.125 -23.25 C 131.1875 -18.082031 133.175781 -13.875 135.09375 -10.625 C 137.019531 -7.382812 139.460938 -4.210938 142.421875 -1.109375 L 142.421875 0 L 102.984375 0 L 102.984375 -1.109375 C 104.460938 -2.734375 105.679688 -4.722656 106.640625 -7.078125 C 107.597656 -9.441406 108.078125 -11.957031 108.078125 -14.625 C 108.078125 -17.28125 107.488281 -20.234375 106.3125 -23.484375 L 94.578125 -53.59375 L 35 -53.59375 L 23.25 -23.921875 C 21.925781 -20.378906 21.265625 -17.128906 21.265625 -14.171875 C 21.265625 -8.859375 23.476562 -4.503906 27.90625 -1.109375 L 27.90625 0 L 0.4375 0 Z M 64.671875 -130.234375 L 36.546875 -58.25 L 92.796875 -58.25 Z M 64.671875 -130.234375 "/></g></g></g><g fill="#000000" fill-opacity="1"><g transform="translate(1211.682669, 208.534378)"><g><path d="M 81.734375 2.4375 C 63.128906 2.4375 48.546875 -1.953125 37.984375 -10.734375 C 27.429688 -19.523438 22.15625 -31.96875 22.15625 -48.0625 L 22.15625 -131.78125 C 22.15625 -135.914062 21.488281 -139.972656 20.15625 -143.953125 C 18.820312 -147.941406 17.195312 -151.269531 15.28125 -153.9375 L 15.28125 -155.046875 L 50.0625 -155.046875 L 50.0625 -153.9375 C 48.132812 -151.269531 46.503906 -147.941406 45.171875 -143.953125 C 43.847656 -139.972656 43.1875 -135.914062 43.1875 -131.78125 L 43.1875 -48.0625 C 43.1875 -34.1875 47.132812 -23.445312 55.03125 -15.84375 C 62.9375 -8.238281 73.382812 -4.4375 86.375 -4.4375 C 99.375 -4.4375 109.820312 -8.238281 117.71875 -15.84375 C 125.613281 -23.445312 129.5625 -34.1875 129.5625 -48.0625 L 129.5625 -131.78125 C 129.5625 -135.769531 128.75 -139.460938 127.125 -142.859375 C 125.507812 -146.253906 123.078125 -149.945312 119.828125 -153.9375 L 119.828125 -155.046875 L 145.078125 -155.046875 L 145.078125 -153.9375 C 141.828125 -149.945312 139.390625 -146.253906 137.765625 -142.859375 C 136.140625 -139.460938 135.328125 -135.769531 135.328125 -131.78125 L 135.328125 -48.0625 C 135.328125 -32.113281 130.523438 -19.707031 120.921875 -10.84375 C 111.328125 -1.988281 98.265625 2.4375 81.734375 2.4375 Z M 81.734375 2.4375 "/></g></g></g><g fill="#000000" fill-opacity="1"><g transform="translate(1359.393846, 208.534378)"><g><path d="M 18.609375 -1.109375 C 20.523438 -3.765625 22.144531 -7.082031 23.46875 -11.0625 C 24.800781 -15.050781 25.46875 -19.113281 25.46875 -23.25 L 25.46875 -131.78125 C 25.46875 -135.914062 24.800781 -139.972656 23.46875 -143.953125 C 22.144531 -147.941406 20.523438 -151.269531 18.609375 -153.9375 L 18.609375 -155.046875 L 53.375 -155.046875 L 53.375 -153.9375 C 51.457031 -151.269531 49.832031 -147.941406 48.5 -143.953125 C 47.175781 -139.972656 46.515625 -135.914062 46.515625 -131.78125 L 46.515625 -4.65625 L 80.625 -4.65625 C 88.894531 -4.65625 95.6875 -5.945312 101 -8.53125 C 106.3125 -11.113281 110.703125 -14.691406 114.171875 -19.265625 C 117.640625 -23.847656 120.925781 -29.753906 124.03125 -36.984375 L 126.25 -36.984375 L 121.59375 0 L 18.609375 0 Z M 18.609375 -1.109375 "/></g></g></g><g fill="#000000" fill-opacity="1"><g transform="translate(1476.986707, 208.534378)"><g><path d="M 52.484375 -1.109375 C 54.410156 -3.765625 56.035156 -7.082031 57.359375 -11.0625 C 58.691406 -15.050781 59.359375 -19.113281 59.359375 -23.25 L 59.359375 -150.390625 L 45.1875 -150.390625 C 34.113281 -150.390625 25.472656 -147.691406 19.265625 -142.296875 C 13.066406 -136.910156 7.601562 -128.753906 2.875 -117.828125 L 0.671875 -117.828125 L 5.53125 -155.046875 L 134.4375 -155.046875 L 139.09375 -117.828125 L 136.875 -117.828125 C 132.300781 -128.609375 126.910156 -136.726562 120.703125 -142.1875 C 114.503906 -147.65625 105.867188 -150.390625 94.796875 -150.390625 L 80.40625 -150.390625 L 80.40625 -23.25 C 80.40625 -19.113281 81.066406 -15.050781 82.390625 -11.0625 C 83.722656 -7.082031 85.347656 -3.765625 87.265625 -1.109375 L 87.265625 0 L 52.484375 0 Z M 52.484375 -1.109375 "/></g></g></g></g></g></g><g transform="matrix(1, 0, 0, 1, 675, 239)"><g clip-path="url(#04779be6d7)"><g fill="#f7f6f1" fill-opacity="1"><g transform="translate(1.107297, 5.181992)"><g><path d="M 2.609375 -2.921875 C 2.578125 -3.117188 2.476562 -3.269531 2.3125 -3.375 C 2.15625 -3.476562 1.960938 -3.53125 1.734375 -3.53125 C 1.472656 -3.53125 1.265625 -3.46875 1.109375 -3.34375 C 0.953125 -3.226562 0.875 -3.078125 0.875 -2.890625 C 0.875 -2.742188 0.914062 -2.628906 1 -2.546875 C 1.082031 -2.460938 1.179688 -2.394531 1.296875 -2.34375 C 1.421875 -2.300781 1.53125 -2.265625 1.625 -2.234375 L 2.015625 -2.125 C 2.117188 -2.101562 2.234375 -2.066406 2.359375 -2.015625 C 2.484375 -1.972656 2.601562 -1.910156 2.71875 -1.828125 C 2.832031 -1.742188 2.925781 -1.640625 3 -1.515625 C 3.070312 -1.390625 3.109375 -1.238281 3.109375 -1.0625 C 3.109375 -0.851562 3.050781 -0.660156 2.9375 -0.484375 C 2.832031 -0.316406 2.675781 -0.179688 2.46875 -0.078125 C 2.257812 0.015625 2.003906 0.0625 1.703125 0.0625 C 1.285156 0.0625 0.953125 -0.0351562 0.703125 -0.234375 C 0.460938 -0.429688 0.328125 -0.6875 0.296875 -1 L 0.796875 -1 C 0.804688 -0.851562 0.851562 -0.734375 0.9375 -0.640625 C 1.03125 -0.546875 1.140625 -0.472656 1.265625 -0.421875 C 1.398438 -0.378906 1.546875 -0.359375 1.703125 -0.359375 C 1.878906 -0.359375 2.039062 -0.382812 2.1875 -0.4375 C 2.332031 -0.5 2.445312 -0.582031 2.53125 -0.6875 C 2.613281 -0.800781 2.65625 -0.925781 2.65625 -1.0625 C 2.65625 -1.195312 2.617188 -1.300781 2.546875 -1.375 C 2.472656 -1.457031 2.378906 -1.523438 2.265625 -1.578125 C 2.148438 -1.628906 2.019531 -1.675781 1.875 -1.71875 L 1.40625 -1.84375 C 1.09375 -1.9375 0.847656 -2.0625 0.671875 -2.21875 C 0.492188 -2.382812 0.40625 -2.597656 0.40625 -2.859375 C 0.40625 -3.078125 0.460938 -3.265625 0.578125 -3.421875 C 0.703125 -3.585938 0.863281 -3.71875 1.0625 -3.8125 C 1.269531 -3.90625 1.5 -3.953125 1.75 -3.953125 C 2 -3.953125 2.21875 -3.90625 2.40625 -3.8125 C 2.601562 -3.726562 2.757812 -3.609375 2.875 -3.453125 C 2.988281 -3.296875 3.050781 -3.117188 3.0625 -2.921875 Z M 2.609375 -2.921875 "/></g></g></g><g fill="#f7f6f1" fill-opacity="1"><g transform="translate(4.530264, 5.181992)"><g><path d="M 0.46875 0 L 0.46875 -3.890625 L 0.9375 -3.890625 L 0.9375 -2.15625 L 3.015625 -2.15625 L 3.015625 -3.890625 L 3.5 -3.890625 L 3.5 0 L 3.015625 0 L 3.015625 -1.75 L 0.9375 -1.75 L 0.9375 0 Z M 0.46875 0 "/></g></g></g><g fill="#f7f6f1" fill-opacity="1"><g transform="translate(8.502129, 5.181992)"><g><path d="M 0.625 0 L 0.140625 0 L 1.5625 -3.890625 L 2.0625 -3.890625 L 3.484375 0 L 2.984375 0 L 2.59375 -1.109375 L 1.03125 -1.109375 Z M 1.171875 -1.515625 L 2.453125 -1.515625 L 1.828125 -3.28125 L 1.796875 -3.28125 Z M 1.171875 -1.515625 "/></g></g></g><g fill="#f7f6f1" fill-opacity="1"><g transform="translate(12.130932, 5.181992)"><g><path d="M 0.46875 0 L 0.46875 -3.890625 L 1.796875 -3.890625 C 2.097656 -3.890625 2.34375 -3.835938 2.53125 -3.734375 C 2.726562 -3.640625 2.875 -3.5 2.96875 -3.3125 C 3.0625 -3.132812 3.109375 -2.929688 3.109375 -2.703125 C 3.109375 -2.441406 3.050781 -2.210938 2.9375 -2.015625 C 2.820312 -1.828125 2.640625 -1.691406 2.390625 -1.609375 L 3.265625 0 L 2.71875 0 L 1.890625 -1.53125 C 1.859375 -1.519531 1.828125 -1.515625 1.796875 -1.515625 L 0.9375 -1.515625 L 0.9375 0 Z M 0.9375 -1.953125 L 1.78125 -1.953125 C 2.09375 -1.953125 2.316406 -2.019531 2.453125 -2.15625 C 2.585938 -2.289062 2.65625 -2.472656 2.65625 -2.703125 C 2.65625 -2.941406 2.585938 -3.128906 2.453125 -3.265625 C 2.316406 -3.410156 2.09375 -3.484375 1.78125 -3.484375 L 0.9375 -3.484375 Z M 0.9375 -1.953125 "/></g></g></g><g clip-path="url(#1877827f1a)"><g fill="#f7f6f1" fill-opacity="1"><g transform="translate(15.561522, 5.181992)"><g><path d="M 0.46875 0 L 0.46875 -3.890625 L 2.828125 -3.890625 L 2.828125 -3.484375 L 0.9375 -3.484375 L 0.9375 -2.15625 L 2.703125 -2.15625 L 2.703125 -1.75 L 0.9375 -1.75 L 0.9375 -0.421875 L 2.859375 -0.421875 L 2.859375 0 Z M 0.46875 0 "/></g></g></g></g></g></g><g clip-path="url(#414534838d)"><path fill="#f7f6f1" d="M 666.382812 239.296875 C 666.382812 239.296875 666.382812 239.292969 666.382812 239.292969 C 666.386719 239.292969 666.386719 239.289062 666.390625 239.285156 C 666.390625 239.285156 666.390625 239.28125 666.390625 239.28125 C 666.390625 239.277344 666.394531 239.273438 666.394531 239.269531 C 666.394531 239.265625 666.398438 239.261719 666.398438 239.257812 C 666.398438 239.253906 666.398438 239.253906 666.398438 239.253906 C 666.398438 239.25 666.398438 239.246094 666.398438 239.242188 C 666.398438 239.242188 666.398438 239.242188 666.398438 239.238281 C 666.398438 239.230469 666.398438 239.222656 666.394531 239.214844 C 666.394531 239.210938 666.394531 239.210938 666.394531 239.210938 C 666.394531 239.207031 666.390625 239.203125 666.390625 239.199219 C 666.390625 239.199219 666.390625 239.199219 666.390625 239.195312 C 666.386719 239.191406 666.386719 239.191406 666.382812 239.1875 C 666.382812 239.1875 666.382812 239.183594 666.382812 239.183594 C 666.382812 239.179688 666.378906 239.175781 666.375 239.171875 C 666.371094 239.167969 666.371094 239.164062 666.367188 239.164062 C 666.367188 239.164062 666.367188 239.160156 666.363281 239.160156 C 666.363281 239.15625 666.359375 239.15625 666.355469 239.152344 C 666.351562 239.148438 666.347656 239.148438 666.34375 239.144531 C 666.34375 239.144531 666.34375 239.144531 666.339844 239.144531 C 666.339844 239.140625 666.335938 239.140625 666.332031 239.140625 C 666.332031 239.136719 666.332031 239.136719 666.328125 239.136719 C 666.324219 239.136719 666.320312 239.132812 666.316406 239.132812 C 666.3125 239.132812 666.308594 239.132812 666.304688 239.128906 C 666.304688 239.128906 666.300781 239.128906 666.300781 239.128906 C 666.296875 239.128906 666.292969 239.128906 666.289062 239.128906 L 659.253906 239.128906 C 659.207031 239.128906 659.164062 239.160156 659.148438 239.203125 C 659.132812 239.246094 659.148438 239.296875 659.183594 239.324219 L 662.09375 241.679688 L 662.632812 245.335938 C 662.640625 245.382812 662.675781 245.421875 662.722656 245.429688 C 662.730469 245.429688 662.738281 245.429688 662.742188 245.429688 C 662.78125 245.429688 662.820312 245.410156 662.839844 245.375 Z M 665.878906 239.351562 L 662.210938 241.488281 L 659.566406 239.351562 Z M 662.808594 244.992188 L 662.320312 241.679688 L 665.980469 239.546875 Z M 662.808594 244.992188 " fill-opacity="1" fill-rule="nonzero"/></g><g transform="matrix(1, 0, 0, 1, 1004, 239)"><g clip-path="url(#ab28d610df)"><g fill="#f7f6f1" fill-opacity="1"><g transform="translate(0.998364, 5.181992)"><g><path d="M 2.609375 -2.921875 C 2.578125 -3.117188 2.476562 -3.269531 2.3125 -3.375 C 2.15625 -3.476562 1.960938 -3.53125 1.734375 -3.53125 C 1.472656 -3.53125 1.265625 -3.46875 1.109375 -3.34375 C 0.953125 -3.226562 0.875 -3.078125 0.875 -2.890625 C 0.875 -2.742188 0.914062 -2.628906 1 -2.546875 C 1.082031 -2.460938 1.179688 -2.394531 1.296875 -2.34375 C 1.421875 -2.300781 1.53125 -2.265625 1.625 -2.234375 L 2.015625 -2.125 C 2.117188 -2.101562 2.234375 -2.066406 2.359375 -2.015625 C 2.484375 -1.972656 2.601562 -1.910156 2.71875 -1.828125 C 2.832031 -1.742188 2.925781 -1.640625 3 -1.515625 C 3.070312 -1.390625 3.109375 -1.238281 3.109375 -1.0625 C 3.109375 -0.851562 3.050781 -0.660156 2.9375 -0.484375 C 2.832031 -0.316406 2.675781 -0.179688 2.46875 -0.078125 C 2.257812 0.015625 2.003906 0.0625 1.703125 0.0625 C 1.285156 0.0625 0.953125 -0.0351562 0.703125 -0.234375 C 0.460938 -0.429688 0.328125 -0.6875 0.296875 -1 L 0.796875 -1 C 0.804688 -0.851562 0.851562 -0.734375 0.9375 -0.640625 C 1.03125 -0.546875 1.140625 -0.472656 1.265625 -0.421875 C 1.398438 -0.378906 1.546875 -0.359375 1.703125 -0.359375 C 1.878906 -0.359375 2.039062 -0.382812 2.1875 -0.4375 C 2.332031 -0.5 2.445312 -0.582031 2.53125 -0.6875 C 2.613281 -0.800781 2.65625 -0.925781 2.65625 -1.0625 C 2.65625 -1.195312 2.617188 -1.300781 2.546875 -1.375 C 2.472656 -1.457031 2.378906 -1.523438 2.265625 -1.578125 C 2.148438 -1.628906 2.019531 -1.675781 1.875 -1.71875 L 1.40625 -1.84375 C 1.09375 -1.9375 0.847656 -2.0625 0.671875 -2.21875 C 0.492188 -2.382812 0.40625 -2.597656 0.40625 -2.859375 C 0.40625 -3.078125 0.460938 -3.265625 0.578125 -3.421875 C 0.703125 -3.585938 0.863281 -3.71875 1.0625 -3.8125 C 1.269531 -3.90625 1.5 -3.953125 1.75 -3.953125 C 2 -3.953125 2.21875 -3.90625 2.40625 -3.8125 C 2.601562 -3.726562 2.757812 -3.609375 2.875 -3.453125 C 2.988281 -3.296875 3.050781 -3.117188 3.0625 -2.921875 Z M 2.609375 -2.921875 "/></g></g></g><g fill="#f7f6f1" fill-opacity="1"><g transform="translate(4.421332, 5.181992)"><g><path d="M 0.625 0 L 0.140625 0 L 1.5625 -3.890625 L 2.0625 -3.890625 L 3.484375 0 L 2.984375 0 L 2.59375 -1.109375 L 1.03125 -1.109375 Z M 1.171875 -1.515625 L 2.453125 -1.515625 L 1.828125 -3.28125 L 1.796875 -3.28125 Z M 1.171875 -1.515625 "/></g></g></g><g fill="#f7f6f1" fill-opacity="1"><g transform="translate(8.050135, 5.181992)"><g><path d="M 0.625 -3.890625 L 1.796875 -0.609375 L 1.828125 -0.609375 L 2.984375 -3.890625 L 3.484375 -3.890625 L 2.0625 0 L 1.5625 0 L 0.140625 -3.890625 Z M 0.625 -3.890625 "/></g></g></g><g fill="#f7f6f1" fill-opacity="1"><g transform="translate(11.678938, 5.181992)"><g><path d="M 0.46875 0 L 0.46875 -3.890625 L 2.828125 -3.890625 L 2.828125 -3.484375 L 0.9375 -3.484375 L 0.9375 -2.15625 L 2.703125 -2.15625 L 2.703125 -1.75 L 0.9375 -1.75 L 0.9375 -0.421875 L 2.859375 -0.421875 L 2.859375 0 Z M 0.46875 0 "/></g></g></g></g></g><g clip-path="url(#89023a9e9f)"><path fill="#f7f6f1" d="M 993.144531 245.394531 L 992.765625 244.992188 C 992.070312 244.265625 991.378906 243.539062 990.683594 242.8125 L 988.230469 245.394531 C 988.203125 245.421875 988.164062 245.433594 988.125 245.417969 C 988.089844 245.402344 988.0625 245.367188 988.0625 245.328125 L 988.0625 239.226562 C 988.0625 239.171875 988.109375 239.128906 988.160156 239.128906 L 993.214844 239.128906 C 993.269531 239.128906 993.3125 239.171875 993.3125 239.226562 L 993.3125 245.328125 C 993.3125 245.367188 993.289062 245.402344 993.25 245.417969 C 993.214844 245.433594 993.171875 245.421875 993.144531 245.394531 Z M 990.683594 242.574219 C 990.683594 242.574219 990.71875 242.574219 990.753906 242.601562 C 990.78125 242.625 991.773438 243.667969 993.117188 245.082031 L 993.117188 239.324219 L 988.257812 239.324219 L 988.257812 245.082031 L 990.613281 242.601562 C 990.632812 242.582031 990.660156 242.574219 990.683594 242.574219 Z M 990.683594 242.574219 " fill-opacity="1" fill-rule="nonzero"/></g><g transform="matrix(1, 0, 0, 1, 649, 26)"><g clip-path="url(#08ed96f0fd)"><g clip-path="url(#8f1e09375a)"><g fill="#f7f6f1" fill-opacity="1"><g transform="translate(0.535346, 5.655816)"><g><path d="M 2.625 -3.78125 C 2.988281 -3.78125 3.304688 -3.722656 3.578125 -3.609375 C 3.847656 -3.492188 4.070312 -3.335938 4.25 -3.140625 C 4.4375 -2.941406 4.570312 -2.71875 4.65625 -2.46875 C 4.75 -2.21875 4.796875 -1.960938 4.796875 -1.703125 C 4.796875 -1.515625 4.785156 -1.320312 4.765625 -1.125 C 4.753906 -0.9375 4.71875 -0.765625 4.65625 -0.609375 C 4.601562 -0.453125 4.515625 -0.320312 4.390625 -0.21875 C 4.273438 -0.125 4.113281 -0.078125 3.90625 -0.078125 C 3.820312 -0.078125 3.722656 -0.0859375 3.609375 -0.109375 C 3.503906 -0.140625 3.410156 -0.1875 3.328125 -0.25 C 3.242188 -0.320312 3.191406 -0.410156 3.171875 -0.515625 L 3.15625 -0.515625 C 3.113281 -0.410156 3.03125 -0.3125 2.90625 -0.21875 C 2.78125 -0.132812 2.609375 -0.09375 2.390625 -0.09375 C 2.171875 -0.101562 1.984375 -0.164062 1.828125 -0.28125 C 1.679688 -0.40625 1.566406 -0.5625 1.484375 -0.75 C 1.410156 -0.945312 1.375 -1.164062 1.375 -1.40625 C 1.375 -1.644531 1.421875 -1.851562 1.515625 -2.03125 C 1.609375 -2.207031 1.726562 -2.347656 1.875 -2.453125 C 2.03125 -2.554688 2.203125 -2.617188 2.390625 -2.640625 C 2.585938 -2.660156 2.753906 -2.640625 2.890625 -2.578125 C 3.023438 -2.515625 3.109375 -2.441406 3.140625 -2.359375 L 3.15625 -2.359375 L 3.15625 -2.578125 L 3.5625 -2.578125 L 3.5625 -0.84375 C 3.5625 -0.738281 3.59375 -0.644531 3.65625 -0.5625 C 3.71875 -0.476562 3.804688 -0.4375 3.921875 -0.4375 C 4.109375 -0.4375 4.234375 -0.535156 4.296875 -0.734375 C 4.367188 -0.941406 4.40625 -1.265625 4.40625 -1.703125 C 4.40625 -1.921875 4.367188 -2.128906 4.296875 -2.328125 C 4.222656 -2.535156 4.109375 -2.722656 3.953125 -2.890625 C 3.804688 -3.054688 3.617188 -3.1875 3.390625 -3.28125 C 3.171875 -3.375 2.910156 -3.421875 2.609375 -3.421875 C 2.203125 -3.421875 1.851562 -3.335938 1.5625 -3.171875 C 1.28125 -3.015625 1.0625 -2.78125 0.90625 -2.46875 C 0.757812 -2.164062 0.6875 -1.800781 0.6875 -1.375 C 0.6875 -0.71875 0.851562 -0.210938 1.1875 0.140625 C 1.53125 0.492188 2.035156 0.671875 2.703125 0.671875 C 2.835938 0.671875 2.972656 0.65625 3.109375 0.625 C 3.242188 0.601562 3.363281 0.570312 3.46875 0.53125 C 3.570312 0.5 3.648438 0.476562 3.703125 0.46875 L 3.8125 0.828125 C 3.726562 0.859375 3.625 0.890625 3.5 0.921875 C 3.375 0.953125 3.238281 0.976562 3.09375 1 C 2.945312 1.019531 2.8125 1.03125 2.6875 1.03125 C 1.894531 1.03125 1.289062 0.820312 0.875 0.40625 C 0.46875 -0.0078125 0.265625 -0.609375 0.265625 -1.390625 C 0.265625 -1.890625 0.359375 -2.316406 0.546875 -2.671875 C 0.734375 -3.035156 1.003906 -3.3125 1.359375 -3.5 C 1.710938 -3.6875 2.132812 -3.78125 2.625 -3.78125 Z M 2.46875 -2.265625 C 2.320312 -2.265625 2.195312 -2.222656 2.09375 -2.140625 C 1.988281 -2.066406 1.910156 -1.96875 1.859375 -1.84375 C 1.804688 -1.71875 1.78125 -1.582031 1.78125 -1.4375 C 1.78125 -1.269531 1.800781 -1.113281 1.84375 -0.96875 C 1.882812 -0.832031 1.953125 -0.71875 2.046875 -0.625 C 2.148438 -0.53125 2.285156 -0.484375 2.453125 -0.484375 C 2.710938 -0.484375 2.894531 -0.5625 3 -0.71875 C 3.113281 -0.875 3.171875 -1.113281 3.171875 -1.4375 C 3.171875 -1.757812 3.109375 -1.976562 2.984375 -2.09375 C 2.867188 -2.207031 2.695312 -2.265625 2.46875 -2.265625 Z M 2.46875 -2.265625 "/></g></g></g></g><g fill="#f7f6f1" fill-opacity="1"><g transform="translate(5.83693, 5.655816)"><g><path d="M 0.46875 0 L 0.46875 -3.9375 L 1.796875 -3.9375 C 2.109375 -3.9375 2.363281 -3.882812 2.5625 -3.78125 C 2.757812 -3.675781 2.90625 -3.53125 3 -3.34375 C 3.09375 -3.164062 3.140625 -2.957031 3.140625 -2.71875 C 3.140625 -2.457031 3.078125 -2.226562 2.953125 -2.03125 C 2.835938 -1.84375 2.65625 -1.707031 2.40625 -1.625 L 3.296875 0 L 2.734375 0 L 1.90625 -1.53125 C 1.875 -1.53125 1.84375 -1.53125 1.8125 -1.53125 L 0.953125 -1.53125 L 0.953125 0 Z M 0.953125 -1.96875 L 1.796875 -1.96875 C 2.109375 -1.96875 2.332031 -2.035156 2.46875 -2.171875 C 2.601562 -2.304688 2.671875 -2.488281 2.671875 -2.71875 C 2.671875 -2.957031 2.601562 -3.148438 2.46875 -3.296875 C 2.332031 -3.441406 2.109375 -3.515625 1.796875 -3.515625 L 0.953125 -3.515625 Z M 0.953125 -1.96875 "/></g></g></g><g fill="#f7f6f1" fill-opacity="1"><g transform="translate(9.535923, 5.655816)"><g><path d="M 0.46875 0 L 0.46875 -3.9375 L 2.84375 -3.9375 L 2.84375 -3.515625 L 0.953125 -3.515625 L 0.953125 -2.1875 L 2.71875 -2.1875 L 2.71875 -1.765625 L 0.953125 -1.765625 L 0.953125 -0.421875 L 2.875 -0.421875 L 2.875 0 Z M 0.46875 0 "/></g></g></g><g fill="#f7f6f1" fill-opacity="1"><g transform="translate(13.012545, 5.655816)"><g><path d="M 0.640625 0 L 0.140625 0 L 1.578125 -3.9375 L 2.078125 -3.9375 L 3.515625 0 L 3.015625 0 L 2.625 -1.109375 L 1.03125 -1.109375 Z M 1.1875 -1.53125 L 2.46875 -1.53125 L 1.84375 -3.3125 L 1.8125 -3.3125 Z M 1.1875 -1.53125 "/></g></g></g><g fill="#f7f6f1" fill-opacity="1"><g transform="translate(16.910905, 5.655816)"><g><path d="M 0.46875 0 L 0.46875 -3.9375 L 0.953125 -3.9375 L 0.953125 -0.421875 L 2.78125 -0.421875 L 2.78125 0 Z M 0.46875 0 "/></g></g></g><g fill="#f7f6f1" fill-opacity="1"><g transform="translate(20.195832, 5.655816)"><g><path d="M 0.46875 0 L 0.46875 -3.9375 L 0.953125 -3.9375 L 0.953125 -0.421875 L 2.78125 -0.421875 L 2.78125 0 Z M 0.46875 0 "/></g></g></g><g fill="#f7f6f1" fill-opacity="1"><g transform="translate(23.480759, 5.655816)"><g><path d="M 0.140625 -3.9375 L 0.6875 -3.9375 L 1.78125 -2.09375 L 1.8125 -2.09375 L 2.90625 -3.9375 L 3.453125 -3.9375 L 2.03125 -1.625 L 2.03125 0 L 1.5625 0 L 1.5625 -1.625 Z M 0.140625 -3.9375 "/></g></g></g><g fill="#f7f6f1" fill-opacity="1"><g transform="translate(27.317773, 5.655816)"><g><path d="M 3.15625 -2.703125 C 3.070312 -2.960938 2.9375 -3.164062 2.75 -3.3125 C 2.5625 -3.46875 2.328125 -3.546875 2.046875 -3.546875 C 1.804688 -3.546875 1.59375 -3.484375 1.40625 -3.359375 C 1.21875 -3.234375 1.066406 -3.050781 0.953125 -2.8125 C 0.835938 -2.582031 0.78125 -2.300781 0.78125 -1.96875 C 0.78125 -1.625 0.835938 -1.332031 0.953125 -1.09375 C 1.066406 -0.863281 1.21875 -0.6875 1.40625 -0.5625 C 1.601562 -0.445312 1.828125 -0.390625 2.078125 -0.390625 C 2.296875 -0.390625 2.488281 -0.4375 2.65625 -0.53125 C 2.832031 -0.625 2.96875 -0.753906 3.0625 -0.921875 C 3.15625 -1.097656 3.207031 -1.304688 3.21875 -1.546875 L 2.1875 -1.546875 L 2.1875 -1.96875 L 3.671875 -1.96875 L 3.671875 -1.546875 C 3.671875 -1.222656 3.601562 -0.941406 3.46875 -0.703125 C 3.332031 -0.460938 3.144531 -0.273438 2.90625 -0.140625 C 2.664062 -0.015625 2.390625 0.046875 2.078125 0.046875 C 1.722656 0.046875 1.414062 -0.03125 1.15625 -0.1875 C 0.894531 -0.351562 0.691406 -0.585938 0.546875 -0.890625 C 0.398438 -1.191406 0.328125 -1.550781 0.328125 -1.96875 C 0.328125 -2.382812 0.398438 -2.742188 0.546875 -3.046875 C 0.691406 -3.347656 0.894531 -3.578125 1.15625 -3.734375 C 1.414062 -3.898438 1.710938 -3.984375 2.046875 -3.984375 C 2.316406 -3.984375 2.566406 -3.925781 2.796875 -3.8125 C 3.023438 -3.707031 3.210938 -3.554688 3.359375 -3.359375 C 3.503906 -3.171875 3.601562 -2.953125 3.65625 -2.703125 Z M 3.15625 -2.703125 "/></g></g></g><g fill="#f7f6f1" fill-opacity="1"><g transform="translate(31.576524, 5.655816)"><g><path d="M 0.46875 0 L 0.46875 -3.9375 L 1.796875 -3.9375 C 2.109375 -3.9375 2.363281 -3.882812 2.5625 -3.78125 C 2.757812 -3.675781 2.90625 -3.53125 3 -3.34375 C 3.09375 -3.164062 3.140625 -2.957031 3.140625 -2.71875 C 3.140625 -2.457031 3.078125 -2.226562 2.953125 -2.03125 C 2.835938 -1.84375 2.65625 -1.707031 2.40625 -1.625 L 3.296875 0 L 2.734375 0 L 1.90625 -1.53125 C 1.875 -1.53125 1.84375 -1.53125 1.8125 -1.53125 L 0.953125 -1.53125 L 0.953125 0 Z M 0.953125 -1.96875 L 1.796875 -1.96875 C 2.109375 -1.96875 2.332031 -2.035156 2.46875 -2.171875 C 2.601562 -2.304688 2.671875 -2.488281 2.671875 -2.71875 C 2.671875 -2.957031 2.601562 -3.148438 2.46875 -3.296875 C 2.332031 -3.441406 2.109375 -3.515625 1.796875 -3.515625 L 0.953125 -3.515625 Z M 0.953125 -1.96875 "/></g></g></g><g fill="#f7f6f1" fill-opacity="1"><g transform="translate(35.275517, 5.655816)"><g><path d="M 0.46875 0 L 0.46875 -3.9375 L 2.84375 -3.9375 L 2.84375 -3.515625 L 0.953125 -3.515625 L 0.953125 -2.1875 L 2.71875 -2.1875 L 2.71875 -1.765625 L 0.953125 -1.765625 L 0.953125 -0.421875 L 2.875 -0.421875 L 2.875 0 Z M 0.46875 0 "/></g></g></g><g fill="#f7f6f1" fill-opacity="1"><g transform="translate(38.752139, 5.655816)"><g><path d="M 0.640625 0 L 0.140625 0 L 1.578125 -3.9375 L 2.078125 -3.9375 L 3.515625 0 L 3.015625 0 L 2.625 -1.109375 L 1.03125 -1.109375 Z M 1.1875 -1.53125 L 2.46875 -1.53125 L 1.84375 -3.3125 L 1.8125 -3.3125 Z M 1.1875 -1.53125 "/></g></g></g><g fill="#f7f6f1" fill-opacity="1"><g transform="translate(42.650499, 5.655816)"><g><path d="M 0.265625 -3.515625 L 0.265625 -3.9375 L 3.203125 -3.9375 L 3.203125 -3.515625 L 1.96875 -3.515625 L 1.96875 0 L 1.5 0 L 1.5 -3.515625 Z M 0.265625 -3.515625 "/></g></g></g><g fill="#f7f6f1" fill-opacity="1"><g transform="translate(46.364827, 5.655816)"><g><path d="M 2.625 -2.953125 C 2.601562 -3.140625 2.507812 -3.285156 2.34375 -3.390625 C 2.175781 -3.503906 1.976562 -3.5625 1.75 -3.5625 C 1.476562 -3.5625 1.265625 -3.5 1.109375 -3.375 C 0.953125 -3.25 0.875 -3.09375 0.875 -2.90625 C 0.875 -2.769531 0.914062 -2.65625 1 -2.5625 C 1.09375 -2.476562 1.195312 -2.410156 1.3125 -2.359375 C 1.425781 -2.316406 1.535156 -2.28125 1.640625 -2.25 L 2.03125 -2.15625 C 2.132812 -2.125 2.25 -2.082031 2.375 -2.03125 C 2.5 -1.988281 2.617188 -1.925781 2.734375 -1.84375 C 2.859375 -1.757812 2.957031 -1.65625 3.03125 -1.53125 C 3.101562 -1.40625 3.140625 -1.25 3.140625 -1.0625 C 3.140625 -0.851562 3.082031 -0.660156 2.96875 -0.484375 C 2.863281 -0.316406 2.703125 -0.179688 2.484375 -0.078125 C 2.273438 0.015625 2.019531 0.0625 1.71875 0.0625 C 1.300781 0.0625 0.96875 -0.0351562 0.71875 -0.234375 C 0.46875 -0.429688 0.332031 -0.691406 0.3125 -1.015625 L 0.796875 -1.015625 C 0.804688 -0.867188 0.851562 -0.742188 0.9375 -0.640625 C 1.03125 -0.546875 1.144531 -0.472656 1.28125 -0.421875 C 1.414062 -0.378906 1.5625 -0.359375 1.71875 -0.359375 C 1.90625 -0.359375 2.066406 -0.390625 2.203125 -0.453125 C 2.347656 -0.515625 2.460938 -0.597656 2.546875 -0.703125 C 2.640625 -0.804688 2.6875 -0.929688 2.6875 -1.078125 C 2.6875 -1.203125 2.648438 -1.304688 2.578125 -1.390625 C 2.503906 -1.472656 2.40625 -1.539062 2.28125 -1.59375 C 2.164062 -1.644531 2.035156 -1.691406 1.890625 -1.734375 L 1.40625 -1.859375 C 1.101562 -1.953125 0.863281 -2.078125 0.6875 -2.234375 C 0.507812 -2.398438 0.421875 -2.617188 0.421875 -2.890625 C 0.421875 -3.109375 0.476562 -3.296875 0.59375 -3.453125 C 0.71875 -3.617188 0.878906 -3.75 1.078125 -3.84375 C 1.273438 -3.9375 1.503906 -3.984375 1.765625 -3.984375 C 2.015625 -3.984375 2.238281 -3.9375 2.4375 -3.84375 C 2.632812 -3.757812 2.789062 -3.640625 2.90625 -3.484375 C 3.019531 -3.328125 3.082031 -3.148438 3.09375 -2.953125 Z M 2.625 -2.953125 "/></g></g></g><g fill="#f7f6f1" fill-opacity="1"><g transform="translate(50.056151, 5.655816)"><g><path d="M 0.953125 -3.9375 L 0.953125 0 L 0.46875 0 L 0.46875 -3.9375 Z M 0.953125 -3.9375 "/></g></g></g><g fill="#f7f6f1" fill-opacity="1"><g transform="translate(51.73082, 5.655816)"><g><path d="M 0.265625 -3.515625 L 0.265625 -3.9375 L 3.203125 -3.9375 L 3.203125 -3.515625 L 1.96875 -3.515625 L 1.96875 0 L 1.5 0 L 1.5 -3.515625 Z M 0.265625 -3.515625 "/></g></g></g><g fill="#f7f6f1" fill-opacity="1"><g transform="translate(55.445148, 5.655816)"><g><path d="M 0.46875 0 L 0.46875 -3.9375 L 2.84375 -3.9375 L 2.84375 -3.515625 L 0.953125 -3.515625 L 0.953125 -2.1875 L 2.71875 -2.1875 L 2.71875 -1.765625 L 0.953125 -1.765625 L 0.953125 -0.421875 L 2.875 -0.421875 L 2.875 0 Z M 0.46875 0 "/></g></g></g></g></g></svg>